<?xml version="1.0" encoding="utf-8"?>
<!-- Generator: Adobe Illustrator 24.0.2, SVG Export Plug-In . SVG Version: 6.00 Build 0)  -->
<svg version="1.1" id="Capa_1" xmlns="http://www.w3.org/2000/svg" xmlns:xlink="http://www.w3.org/1999/xlink" x="0px" y="0px"
	 viewBox="0 0 600 600" style="enable-background:new 0 0 600 600;" xml:space="preserve">
<style type="text/css">
	.st0{fill:#2C3E50;}
	.st1{display:none;opacity:0.5;fill:#ECF0F1;enable-background:new    ;}
	.st2{clip-path:url(#SVGID_2_);}
	.st3{fill:#0C080C;}
	.st4{fill:#F3D4CF;}
	.st5{fill:#FFF4F3;}
	.st6{fill:#E4B3AB;}
	.st7{fill:none;stroke:#C5796D;stroke-width:3.825;stroke-miterlimit:10.2;}
	.st8{fill:url(#SvgjsPath2943_1_);}
	.st9{fill:#09AAC5;}
	.st10{fill:#141111;}
	.st11{fill:#2C2526;}
	.st12{fill:#545B8E;}
	.st13{fill:#1FBAD4;}
	.st14{fill:#009CB6;}
	.st15{fill:#008EA6;}
	.st16{fill:#008197;}
	.st17{display:none;}
	.st18{display:inline;}
	.st19{fill:#F3D4CF;stroke:#C5796D;stroke-width:3.825;stroke-miterlimit:10.2;}
	.st20{fill:#C5796D;}
	.st21{fill:#EBC3BD;}
	.st22{fill:url(#SvgjsPath2954_1_);}
	.st23{fill:#F771A9;stroke:#E85391;stroke-width:1.9125;stroke-miterlimit:10.2;}
	.st24{fill:#C92066;}
	.st25{fill:#FF8EBD;}
	.st26{fill:#FFA8CC;}
	.st27{fill:url(#SvgjsPath3576_1_);}
	.st28{fill:#4E60A3;stroke:#152975;stroke-width:1.3387;stroke-miterlimit:10.71;}
	.st29{fill:#6777B2;}
	.st30{fill:#4E60A3;stroke:#384B94;stroke-width:1.3387;stroke-miterlimit:10.71;}
	.st31{fill:#4E60A3;stroke:#253984;stroke-width:1.3387;stroke-miterlimit:10.71;}
	.st32{opacity:0.9;enable-background:new    ;}
	.st33{opacity:0.7;fill:#FFFFFF;enable-background:new    ;}
	.st34{opacity:0.9;fill:#FFFFFF;enable-background:new    ;}
	.st35{fill:url(#SvgjsPath3599_1_);}
	.st36{fill:url(#SvgjsPath3604_1_);}
	.st37{fill:url(#SvgjsPath3583_1_);}
	.st38{fill:url(#SvgjsPath3619_1_);}
	.st39{fill:url(#SvgjsPath3624_1_);}
	.st40{fill:url(#SvgjsPath2772_1_);}
	.st41{fill:url(#SvgjsPath2776_1_);}
	.st42{fill:#2A232B;}
	.st43{opacity:0.2;fill:#FFFFFF;enable-background:new    ;}
	.st44{opacity:0.1;fill:#2A232B;enable-background:new    ;}
	.st45{fill:#1B141C;}
	.st46{fill:#3A353A;}
	.st47{fill:#26120B;}
</style>
<circle class="st0" cx="300" cy="300" r="300"/>
<g id="svga-group-backs-single">
</g>
<rect id="SvgjsRect1052" x="4.7" y="522.6" class="st1" width="600" height="45"/>
<g>
	<defs>
		<circle id="SVGID_1_" cx="299" cy="299" r="300"/>
	</defs>
	<clipPath id="SVGID_2_">
		<use xlink:href="#SVGID_1_"  style="overflow:visible;"/>
	</clipPath>
	<g id="svga-group-humanwrap-move" transform="matrix(1,0,0,1,0,0)" class="st2">
		
			<g id="svga-group-humanwrap" transform="matrix(0.8499995000000001,0,0,0.8499995000000001,15.00773473325728,17.132409734165776)">
			<g id="svga-group-hair-back-move" transform="matrix(1,0,0,1,0,0)">
				<g id="svga-group-hair-back" transform="matrix(1,0,0,1,0,0)">
					<path id="SvgjsPath2981" class="st3" d="M495.6,125.4l-298.5-17c0,0-75.2,548.6-75.2,565.8c0,0,302.7,2.2,431.7,0
						C551.1,650.5,495.6,125.4,495.6,125.4z"/>
				</g>
			</g>
			<g id="svga-group-humanbody-single">
				<path id="SvgjsPath2780" class="st4" d="M613.4,601.8c-18-30.5-40.4-35.9-58.9-41.8c-19-6-58-9.5-79.3-13.8
					c-20.6-4.1-69.5-17.4-70-40.5c-0.6-24.2,12.9-120.3,12.9-120.3H262.8c0,0,13.5,96.1,12.9,120.3c-0.6,23.1-49.4,36.3-70,40.5
					c-21.3,4.3-60.4,7.8-79.3,13.8c-18.5,5.9-40.9,11.3-58.9,41.8c-10.9,18.5-18,48.4-18,81.4h582
					C631.4,650.2,624.3,620.3,613.4,601.8z"/>
				<path id="SvgjsPath2781" class="st5" d="M405.1,505.8c7.5,32.8,54.5,41.1,78.9,46c65.7,13.1,101.3,15.4,126.9,58.6
					c8.7,14.7,16.4,47.6,17.9,72.5c5.5,0.9,1.6-52.3-15.4-81c-29.2-49.4-87.3-45.4-138.2-55.6C454.6,542.1,405.7,528.9,405.1,505.8
					L405.1,505.8z M276.5,505.8c-0.6,23.1-49.4,36.3-70,40.5c-51,10.2-109,6.2-138.2,55.6c-17,28.7-20.9,81.9-15.4,81
					c1.5-24.9,9.2-57.7,17.9-72.5c25.6-43.2,61.2-45.5,126.9-58.6C222,546.9,269,538.6,276.5,505.8L276.5,505.8z"/>
				<path id="SvgjsPath2782" class="st6" d="M194.4,570.8c0,0,85.9,0.9,100.4,5.7c6.9,2.3,25.1,16.9,25.1,16.9s-19.7-9.5-26-11.3
					C279.3,578,194.4,570.8,194.4,570.8z M340.2,602.2c6.2-0.1,23.7-11.4,23.7-11.4s-16.7,6.2-22,6.5c-4.5,0.3-19.1-3.7-19.1-3.7
					S335.1,602.3,340.2,602.2z M391.8,580.5c20.3-5.5,89.4-9.7,89.4-9.7s-71.4-1.5-91.5,5.2c-6.8,2.3-22.7,15.5-22.7,15.5
					S385.2,582.3,391.8,580.5z"/>
				<path id="SvgjsPath2783" class="st7" d="M613.4,601.8c-29.2-49.4-87.4-45.4-138.2-55.6c-20.6-4.1-69.5-17.4-70-40.5
					c-0.6-24.2,12.9-120.3,12.9-120.3H262.8c0,0,13.5,96.1,12.9,120.3c-0.6,23.1-49.4,36.3-70,40.5c-21.3,4.3-60.4,7.8-79.3,13.8
					c-18.5,5.9-40.9,11.3-58.9,41.8c-10.9,18.5-18,48.4-18,81.4h582C631.4,650.2,624.3,620.3,613.4,601.8z"/>
			</g>
			<g id="svga-group-chinshadow-single">
				
					<linearGradient id="SvgjsPath2943_1_" gradientUnits="userSpaceOnUse" x1="-140.4297" y1="652.4007" x2="-140.4297" y2="687.3197" gradientTransform="matrix(2.55 0 0 -2.55 698.5121 2179.6802)">
					<stop  offset="0" style="stop-color:#E4B3AB;stop-opacity:0.8"/>
					<stop  offset="0.7" style="stop-color:#C5796D"/>
				</linearGradient>
				<path id="SvgjsPath2943" class="st8" d="M265.1,387.8c1.9,13.9,10.5,77.2,12.3,107.4c19.4,10.9,42.6,20,63.5,20
					c19.7,0,43-9,62.6-19.9c1.7-30.2,10.3-93.7,12.3-107.6l0.1-0.3H265.1L265.1,387.8z"/>
			</g>
			<g id="svga-group-clothes-single">
				<path id="SvgjsPath2969" class="st9" d="M611.4,601.2c-29-53.8-80.4-44.2-133.8-58.7c-4,4.9-41.1,52.4-49.5,77.8
					c-4.7-3.8-10.3-8.8-14.4-13.4c-19.9-22.4-49.4-94.8-59.3-38.2c2.2-25.4,13.8-31,30.1-9.7c17.5,22.9,18.1,34.7,43,59.6
					c4.4-17.5,12.8-30.1,23.9-45.6c10.7-15,19.3-26.8,31.7-37.5c-6.8-3.7-13.9-6.7-20.4-10.8c-40.5-26.3-16.3-52.9-53.1-59.3
					c-0.3,3.2-0.7,6.7-1,9.4c7.9,3.9,9.4,19-2.7,30c-19.2,20.2-44.6,21.2-52.7,52.3l0,0c-2.6,9.2-4.6,23.3-5.6,31.6l-13.6,1.2
					c-5.5-48.7-12.8-53.4-36.5-68.5c-15.7-10-37.5-25-29.1-42c1-2,2.1-3.2,3.6-4.1c-0.4-3.9-0.7-6.1-1-9.8
					c-36.6,6.9-12.1,34.8-53,59.6c-6.2,3.7-12.2,6.3-19.6,10.2c14.6,12.8,48.9,55.5,55.7,83.2c25.1-25.4,25.3-36.5,42.9-59.5
					c15.1-19.8,27.5-17.8,30.1,9c-1.4-8-4.8-20.4-12.1-20.4c-6,0-12.3,8.5-15.4,12.7c-17.4,23-20.2,39.5-46.1,60
					c-1.8-5.1-3.9-10.3-6.4-15.1c-10.2-19.8-39.9-58.8-43-62.7c-12.2,3.3-29,6-40.2,7.7C90.5,562,62.1,576.7,51.3,682.9
					c268.9-2.6,378.5-1.5,578.8-1.5C627.6,657.8,622.7,622.2,611.4,601.2z"/>
				<path id="SvgjsPath2970" class="st10" d="M328,675.3c-11,0-18.9-0.2-23.5-0.5c1.4-7.4,5.6-21.4,8-28.3
					c-7.7-9.7-9.8-19.7-11.7-28.6c-1.1-5.3-2.1-9.8-4.1-13.4c0.4-0.2,1.5-0.8,1.5-0.8l-0.2-0.3c-5.1-7.2-11-15.1-17.3-18.8l1-1.7
					c5.1-8.5,13.5-22.6,20.8-30c12.6,9.5,27,27.4,32.6,36.8l0.1,0.2l0.2,0c3.9-0.6,8.2-0.9,11.4-0.9c8.8-13.4,21-27.1,32.3-36
					c5.9,5.2,15.3,20.9,19.8,28.5c0.9,1.5,1.6,2.6,2,3.2c-7.1,4.7-13.7,13.8-16.3,17.5l-0.2,0.2l0.2,0.2c1,0.8,3,2.4,4,3.5
					c-2.1,15.3-8.6,31.1-17.2,40.9c2.1,6.5,2.9,14,4,24.4l0.4,3.4c-0.8,0-2.4,0-4.7,0.1C362.3,674.9,343.9,675.3,328,675.3
					C328,675.3,328,675.3,328,675.3z"/>
				<path id="SvgjsPath2971" class="st11" d="M382.5,609.1c-0.6,13-5.1,23.6-12.8,36.2c7.9-9.9,17-24.8,18.9-39.4
					c-8.4-8.4-38.3-22.5-70-10.6C344.6,590.2,375.2,594.5,382.5,609.1z"/>
				<path id="SvgjsPath2972" class="st12" d="M472.7,545.6c-7.4,8-13.8,16.9-21.3,27.3c-9.6,13.4-17.2,24.7-21.9,38.8
					c5.4-29.1,23.8-55.4,46.3-75.5c-23.7-4.3-35-25.7-40.6-47.4c3.5,10.5,8,23.2,27.5,35.8c6.5,4.1,13.6,7.1,20.4,10.8
					C482.6,535.9,472.7,545.6,472.7,545.6z M598.8,596.2c17,21.3,25,48.7,30.3,76.7c-2.8-23.1-7.8-53.2-17.8-71.8
					c-29-53.8-80.4-44.2-133.8-58.7c-0.5,0.6-1.4,1.8-2.7,3.4C518.8,551.7,569.9,558.7,598.8,596.2z M198.5,535.5
					c6.8-3.7,13.9-6.7,20.4-10.8c19.5-12.6,24-25.3,27.5-35.8c-5.6,21.7-16.9,43.1-40.6,47.4c22.6,20,40.9,46.4,46.3,75.5
					c-4.7-14.1-12.3-25.4-21.9-38.8c-7.5-10.4-13.9-19.3-21.3-27.3C209,545.6,199,535.9,198.5,535.5z M206.8,545.9
					c-1.3-1.6-2.2-2.8-2.7-3.4c-53.4,14.4-104.9,4.9-133.8,58.7c-10,18.6-15,48.7-17.8,71.8c5.3-28,13.3-55.4,30.3-76.7
					C111.7,558.7,162.8,551.7,206.8,545.9z"/>
				<path id="SvgjsPath2973" class="st13" d="M472.7,545.6c-7.4,8-13.8,16.9-21.3,27.3c-9.6,13.4-17.2,24.7-21.9,38.8
					c5.4-29.1,23.8-55.4,46.3-75.5c-23.7-4.3-35-25.7-40.6-47.4c3.5,10.5,8,23.2,27.5,35.8c6.5,4.1,13.6,7.1,20.4,10.8
					C482.6,535.9,472.7,545.6,472.7,545.6z M598.8,596.2c17,21.3,25,48.7,30.3,76.7c-2.8-23.1-7.8-53.2-17.8-71.8
					c-29-53.8-80.4-44.2-133.8-58.7c-0.5,0.6-1.4,1.8-2.7,3.4C518.8,551.7,569.9,558.7,598.8,596.2z M198.5,535.5
					c6.8-3.7,13.9-6.7,20.4-10.8c19.5-12.6,24-25.3,27.5-35.8c-5.6,21.7-16.9,43.1-40.6,47.4c22.6,20,40.9,46.4,46.3,75.5
					c-4.7-14.1-12.3-25.4-21.9-38.8c-7.5-10.4-13.9-19.3-21.3-27.3C209,545.6,199,535.9,198.5,535.5z M206.8,545.9
					c-1.3-1.6-2.2-2.8-2.7-3.4c-53.4,14.4-104.9,4.9-133.8,58.7c-10,18.6-15,48.7-17.8,71.8c5.3-28,13.3-55.4,30.3-76.7
					C111.7,558.7,162.8,551.7,206.8,545.9z"/>
				<path id="SvgjsPath2974" class="st14" d="M395.7,521.2c-13.5,7.5-24.8,14.8-32.4,25.1c2.9,0.8,10.7,2.9,14.3,7.1
					c-12,9.4-19.3,18-29.7,34.8c1.2-9.4,1.7-16.7,3.6-23.6c0.6-2.7,1.2-5.4,1.8-7.7l0,0c8.1-31.1,33.4-32.1,52.7-52.3
					c12.1-11,10.6-26.1,2.7-30c0.3-2.7,0.7-6.2,1-9.4c2,0.3,3.8,0.8,5.5,1.2C439.9,487.5,412.6,514,395.7,521.2z M282.6,521.2
					c13.5,7.5,29.9,16.3,37.4,25.8c-2.9,0.8-12.4,2.3-16.1,6.5c13.7,12.7,21.9,21.6,30.8,35.9c-1.2-9.4-2.7-17.8-4.7-24.7
					c-0.6-2.7-1.2-5.4-1.8-7.7l0,0c-8.1-31.1-33.4-32.1-52.7-52.3c-12.1-11-10.6-26.1-2.7-30c-0.3-2.7-0.7-6.2-1-9.4
					c-2,0.3-3.8,0.8-5.5,1.2C245.7,491,267.4,512.4,282.6,521.2z"/>
				<path id="SvgjsPath2975" class="st15" d="M412.4,481.6c1.7,7-1,12.6-5.3,17.5c0-5.2,0.5-10.4,1-15.5c0.2-2.5,0.5-5.1,0.8-7.6
					C410.5,477.1,411.7,478.9,412.4,481.6z M272.7,484.7c0.3,4.4,0.7,8.8,0.8,13.2c-3.7-4.6-5.8-9.8-4.3-16.3
					c0.5-2.2,1.4-3.8,2.7-4.9C272.2,479.4,272.5,482,272.7,484.7z"/>
				<path id="SvgjsPath2976" class="st16" d="M618.5,604.3c-26.5-60.7-89.1-53.4-139.4-63.2c2.1-2.5,4.6-5.2,5.2-5.7
					c-7.9-5.6-33.4-16.8-42.7-37.1c-6.7-14.5-5-31.1-32.6-33.8c-1.5,8.4-3.7,27-3.3,36c-28.8,29.7-57.2,16.4-60.7,88.1l2.3-0.1
					c0,0,0.7-0.4,0.7-0.6c8.5-70.1,30.1-53.5,58-82.9c12.5-11.5,10.3-26.7,2.8-30.4c0.3-3,0.6-5.9,0.9-8.9
					c23.7,4.2,21.6,17.5,29,33.8c9.8,21.7,34,30.8,43.7,36c-13,11.2-22.4,24.7-32.8,39.2c-16.4,22.7-20.1,34.3-22.4,43.2
					c-24.8-25-24.8-35.9-42.6-59.2c-18.9-24.8-31.1-11.7-30.9,16.1c0.5-7,4.7-32.5,16.5-25.8c13.7,7.6,27.1,40.1,43.1,58
					c4.3,4.8,9.7,9.7,14.8,13.7c6.2-20.8,28.8-49.9,42.8-69.4c2.1-2.9,4.3-5.8,6.6-8.6c19.5,5.1,39.8,7.4,59.5,11
					c71.4,13.1,84.5,52.5,92.6,127.3c-113.8,0.6-237.4-1.8-578.1,1.5c4.9-48.9,13.3-88.8,43.5-110.4c13-9.3,28-14.2,43.5-17.3
					c21.6-4.3,44-6.5,65.4-12.1c2.5,3,4.9,6.2,7.2,9.4c26.4,36.7,33.3,44.8,42.2,68.6c30.1-22.5,42.1-64.8,58.6-72.2
					c11.5-5.1,15.2,19.3,15.8,26.2c0.2-29.5-13.6-47-41.4-0.7c-13.7,22.9-17.4,29.1-32,43.8c-5.9-23.8-37.1-66.8-55.3-82.5
					c11.3-6.1,31.8-13.3,42.7-33.9c7.2-14.1,4-30.9,29.1-35.7c0.3,3.1,0.6,6.2,0.9,9.2c-6.9,4.3-8,18.9,2.9,29
					c9.9,10.8,23.3,17,35,25.7c13.9,10.3,19.3,20.8,23.8,57.5c0.1,0.8,1.1,2.3,1.1,2.3l1.9-0.2c-1.1-25.4-4.8-47-19.7-59.5
					c-12.9-11-30.9-18-41.8-30.3c0.3-9.2-2.1-27.9-3.3-34.9c-24.9,2.4-25.1,17.6-30.4,30.8c-8,20.1-28.8,30.8-44,39.9
					c1,1,3.4,3.6,5.2,5.7c-21,4.1-42.7,5.3-63.7,9c-31.4,5.5-61,21.4-74.5,51.6c-10.3,22.9-13.2,55.8-14,81c0,0.2,0,0.4,0,0.6
					c0.4,0,0.9,0,1.3,0c361,3.7,576.7-1.5,579.7-1.5C631.3,678.7,629.9,630.5,618.5,604.3z M407.1,499.1c0-7.8,1.1-16.8,1.7-23
					C413.3,479,415.9,489.1,407.1,499.1z M273.5,497.9c-7.3-9.2-5-18.1-1.6-21.2C272.6,482.9,273.4,491.6,273.5,497.9z"/>
			</g>
			<g id="svga-group-head" transform="matrix(1,0,0,1,0,0)">
				<g id="svga-group-ears-left-move" transform="matrix(1,0,0,1,0,0)" class="st17">
					<g id="svga-group-ears-left" transform="matrix(1,0,0,1,0,0)" class="st18">
						<path id="SvgjsPath2947" class="st19" d="M181.8,254.2c-4.1-6.9-16.9-24-29.9-19.8c-8.2,2.6-9.9,11.3-11.2,18.9
							c-1.8,10.2,1.4,30.2,4.2,37.5c2.6,7,10.6,20.4,15.8,25.6c6.4,6.3,14.3,26.4,15.6,28.5c2,3.3,4.6,8.2,12.4,7.6
							c8.6-0.7,13.8-5.2,17.6-6C215.6,344.6,192.6,272.2,181.8,254.2z"/>
						<path id="SvgjsPath2948" class="st20" d="M173.4,296.2c-0.4-1.6,0-4.4,0.4-7.1c0.4-2.4,0.7-4.7,0.5-6.4
							c-0.8-6.1-5.3-17.7-8.3-24c-3.4-7.2-8.9-16.3-15.8-18.7c-2.9-1-4.7,0.2-5.8,1.4c-0.8,0.9-1,1.9-0.7,2c0.3,0.1,0.9-0.7,1.7-1.5
							c0.7-0.6,1.7-1.2,3.2-1.1c-0.6,3-3.5,19.5-2.2,30.7c1,8.8,4.8,15.4,5.4,16.4c0.1,1,0.2,2.1,0.4,3
							c2.8,12.9,14.9,27.5,19.1,32.3c0.8,0.9,1.6,1.4,1.8,1.2c0.2-0.2-0.3-1.1-1.1-2c-4.2-4.8-16.2-19.3-18.9-31.7
							c-2.9-13.2,7-32.7,9.1-36.8c1.1,1.9,2.1,3.8,2.8,5.4c0.6,1.2,1.2,2.6,1.9,4.2c-1.3,2.2-10.3,17.9-7,30.5
							c1.2,4.6,6.7,10.6,10.3,12.3c2,0.9,2.8,2.3,3.6,3.8c1,1.8,2.2,3.9,5.5,5.4c0.7,0.3,1.3,0.4,1.8,0.4c0.9,0,1.7-0.4,2.2-0.8
							c0.1,0.8,0.1,1.8,0,2.8c0,1.2,0.1,2.2,0.4,2.2c0.3,0,0.6-0.9,0.6-2.2c0-1.5,0-3.3-0.2-4.2c-0.7-2.6-3-5.5-5.4-8.6
							C176.5,301.9,174,298.8,173.4,296.2z M151.7,284.8c-6.5-20.2,2-37.6,3.4-40.4c2.6,2.3,4.8,5.4,6.6,8.5
							C160.4,255.3,151.9,271.3,151.7,284.8z M179.8,314.4c-3-1.3-4-3.2-5-4.9c-0.9-1.6-1.8-3.2-4.1-4.3c-0.5-0.2-1.1-0.6-1.6-1
							c-7.5-17.7,0.8-25.5,2.9-27.1c0.6,2.2,1.1,4.2,1.3,5.7c0.2,1.5-0.2,3.8-0.5,6c-0.4,2.8-0.9,5.7-0.4,7.5c0.7,2.8,3.2,6,5.7,9.2
							c2.2,2.8,4.4,5.7,5.2,8C182.9,314.2,181.9,315.3,179.8,314.4z"/>
					</g>
				</g>
				<g id="svga-group-ears-right-move" transform="matrix(1,0,0,1,0,0)" class="st17">
					<g id="svga-group-ears-right" transform="matrix(1,0,0,1,0,0)" class="st18">
						<path id="SvgjsPath2949" class="st19" d="M499,254.2c4.1-6.9,16.9-24,29.9-19.8c8.3,2.6,9.9,11.3,11.2,18.9
							c1.8,10.2-1.4,30.2-4.2,37.5c-2.6,7-10.6,20.4-15.8,25.6c-6.4,6.3-14.3,26.4-15.6,28.5c-2,3.3-4.6,8.2-12.4,7.6
							c-8.6-0.7-13.8-5.2-17.6-6C465.3,344.6,488.3,272.2,499,254.2z"/>
						<path id="SvgjsPath2950" class="st20" d="M502,305c-2.4,3.1-4.7,6-5.4,8.6c-0.3,0.9-0.3,2.7-0.2,4.2c0,1.2,0.3,2.2,0.6,2.2
							s0.4-1,0.4-2.2c0-0.9,0-2,0-2.8c0.5,0.5,1.2,0.8,2.2,0.8c0.5,0,1.2-0.1,1.8-0.4c3.3-1.5,4.5-3.5,5.5-5.4
							c0.9-1.6,1.6-2.9,3.6-3.8c3.6-1.6,9.1-7.6,10.3-12.3c3.3-12.6-5.7-28.3-7-30.5c0.7-1.5,1.3-3,1.9-4.2c0.7-1.6,1.7-3.4,2.8-5.4
							c2.2,4.1,12,23.6,9.1,36.8c-2.7,12.4-14.7,27-18.9,31.7c-0.8,0.9-1.3,1.8-1.1,2c0.2,0.2,1-0.3,1.8-1.2
							c4.2-4.8,16.3-19.4,19.1-32.3c0.2-1,0.4-2,0.4-3c0.6-1,4.4-7.6,5.4-16.4c1.3-11.2-1.7-27.6-2.2-30.7c1.4-0.1,2.4,0.4,3.2,1.1
							c0.9,0.8,1.5,1.6,1.7,1.5c0.3-0.1,0.1-1.1-0.7-2c-1.1-1.2-3-2.3-5.8-1.4c-6.9,2.3-12.4,11.4-15.8,18.7c-3,6.3-7.5,17.9-8.3,24
							c-0.2,1.6,0.1,3.9,0.5,6.4c0.4,2.7,0.8,5.4,0.4,7.1C506.8,298.8,504.4,301.9,502,305z M519.1,252.9c1.8-3,4.1-6.1,6.6-8.5
							c1.5,2.8,10,20.2,3.4,40.4C528.9,271.3,520.4,255.3,519.1,252.9z M497.6,313.7c0.8-2.3,3-5.2,5.2-8c2.4-3.1,5-6.4,5.7-9.2
							c0.4-1.9,0-4.7-0.4-7.5c-0.3-2.2-0.7-4.6-0.5-6c0.2-1.6,0.7-3.6,1.3-5.7c2.1,1.6,10.3,9.3,2.9,27.1c-0.6,0.4-1.1,0.7-1.6,1
							c-2.3,1-3.2,2.7-4.1,4.3c-1,1.7-2,3.6-5,4.9C499,315.3,497.9,314.2,497.6,313.7z"/>
					</g>
				</g>
				<g id="svga-group-faceshape-wrap" transform="matrix(1,0,0,1,0,0)">
					<g id="svga-group-faceshape-single">
						<path id="SvgjsPath2940" class="st4" d="M340.8,4.9C240,5,158.1,86.5,158.2,186.9c0,15.9,2.1,31.4,6,46.1h0
							c0,0.2,25,60.5,31.4,98c7.1,42.1,31.4,89.2,48.9,105.6c18.2,17,60.8,43.3,96.3,43.3c33.8,0,78.1-26.3,96.3-43.3
							c17.5-16.4,41.8-63.5,48.9-105.6c6.4-37.6,31.4-97.8,31.4-98h0c3.9-14.7,6-30.2,6-46.1C523.6,86.5,441.7,5,340.8,4.9z"/>
						<path id="SvgjsPath2941" class="st21" d="M451.5,42.2c38.6,33.4,63.2,83.9,63.1,140.3c0,15.9-2,31.4-5.7,46.1h0
							c0,0.2-23.8,60.5-29.9,98c-6.8,42.1-29.9,89.2-46.6,105.6c-17.3,17-59.5,43.3-91.7,43.3c-33.7,0-74.4-26.3-91.7-43.3
							c-16.7-16.4-39.8-63.5-46.5-105.6c-6.1-37.6-29.8-97.8-29.9-98h0c-3.7-14.7-5.7-30.2-5.7-46.1
							c-0.1-56.4,24.5-106.9,63.1-140.3c-43.7,33.3-72,85.7-71.9,144.7c0,15.9,2.1,31.4,6,46.1h0c0,0.2,25,60.5,31.4,98
							c7.1,42.1,31.4,89.2,48.9,105.6c18.2,17,60.8,43.3,96.3,43.3c33.8,0,78.1-26.3,96.3-43.3c17.5-16.4,41.8-63.5,48.9-105.6
							c6.4-37.6,31.4-97.8,31.4-98h0c3.9-14.7,6-30.2,6-46.1C523.5,127.9,495.3,75.5,451.5,42.2z"/>
						<path id="SvgjsPath2942" class="st7" d="M340.8,4.9C240,5,158.1,86.5,158.2,186.9c0,15.9,2.1,31.4,6,46.1h0
							c0,0.2,25,60.5,31.4,98c7.1,42.1,31.4,89.2,48.9,105.6c18.2,17,60.8,43.3,96.3,43.3c33.8,0,78.1-26.3,96.3-43.3
							c17.5-16.4,41.8-63.5,48.9-105.6c6.4-37.6,31.4-97.8,31.4-98h0c3.9-14.7,6-30.2,6-46.1C523.6,86.5,441.7,5,340.8,4.9z"/>
					</g>
				</g>
				<g id="svga-group-mouth-single-move" transform="matrix(1,0,0,1,0,0)">
					<g id="svga-group-mouth-single" transform="matrix(1,0,0,1,0,0)">
						
							<linearGradient id="SvgjsPath2954_1_" gradientUnits="userSpaceOnUse" x1="-140.2726" y1="688.0125" x2="-140.2726" y2="691.0125" gradientTransform="matrix(2.55 0 0 -2.55 698.5121 2179.6802)">
							<stop  offset="0.1" style="stop-color:#EBC3BD"/>
							<stop  offset="1" style="stop-color:#E4B3AB"/>
						</linearGradient>
						<path id="SvgjsPath2954" class="st22" d="M340.8,426.6c-12.5,0-15.4-9.7-15.4-9.7h30.8C356.2,416.9,351.8,426.6,340.8,426.6z"
							/>
						<path id="SvgjsPath2958" class="st23" d="M303.4,401.1c8.3-2.9,18.7-10.9,25.3-11.2c3.4-0.2,7.1,2.6,10.7,3.5
							c2.6,0.6,9.8-3.5,12.4-3.5c6.8-0.1,19,8.3,26.3,11.2c0.4,0.2,0,0,0,0s-15.2,18.1-37.4,18.1
							C315.7,419.2,303.4,401.1,303.4,401.1S303,401.3,303.4,401.1z"/>
						<path id="SvgjsPath2959" class="st24" d="M379.2,401c-0.6-0.2-1.8-0.1-2.3-0.1c-0.9,0-1.6-0.4-3.6-0.4c-2.2,0-11.8-0.8-15-1
							c-6.4-0.4-11.5,2-17.5,2c-6.1,0-11.6-2.6-18-2.2c-3.2,0.2-12.3,1.2-14.6,1.2c-2,0.1-2.8,0.4-3.7,0.4c-0.4,0-1.8-0.1-2.3,0.2
							c-0.4,0.3-0.3,1.7,0.1,2c0.9,0.9,4.2-0.7,5.9-0.7c2.3,0.1,11.5-0.1,14.8-0.4c6.2-0.4,11.8,2.5,17.9,2.5s11.2-2.7,17.4-2.2
							c3.2,0.2,12.8,0.2,15.2,0.1c1.7,0,5.3,1.3,6.2,0.7C379.9,402.7,379.7,401.2,379.2,401z"/>
						<path id="SvgjsPath2960" class="st25" d="M340.8,414.6c-10.1,0-19.9-3.5-27.7-9.9c3.9-0.2,8-0.8,11.9-0.7
							c4.8,0.2,9.4,2.1,14.3,2.4c5.2,0.3,10.1-1.5,15.2-2.1c4.3-0.5,8.8,0.2,13.1,0.3C359.8,410.6,350.5,414.6,340.8,414.6z
							 M355.1,397.3c3.9-0.2,8,0.3,11.9,0.4c-4.3-2.1-8.9-4.7-13.6-5.4c-4.1-0.7-8.1,2.6-12.1,3.3c-4.5,0.8-8.1-3.4-12.5-3.4
							c-4.8,0.2-9.6,3.3-13.7,5.4c3.8-0.2,7.8-0.8,11.7-0.4c4.7,0.4,9.3,2.1,14,2.1C345.6,399.3,350.3,397.6,355.1,397.3z"/>
						<path id="SvgjsPath2961" class="st26" d="M340.6,411.7c-6.1,0-12-2.1-17.1-6c1.1-0.1,2.3-0.2,3.4-0.2c0.4,0,0.7,0,1.1,0
							c1.8,0.1,3.6,0.6,5.5,1.2c1.9,0.5,3.8,1.1,5.8,1.3c0.4,0,0.8,0,1.2,0c2.5,0,4.8-0.6,7-1.2c1.4-0.4,2.8-0.7,4.2-0.9
							c0.8-0.1,1.6-0.2,2.5-0.2c0.8,0,1.6,0,2.5,0.1C352.4,409,346.9,411.7,340.6,411.7z"/>
					</g>
				</g>
				<g id="svga-group-eyes-left-move" transform="matrix(1,0,0,1,0,1)">
					<g id="svga-group-eyes-left" transform="matrix(1.0500001,0,0,1.0500001,-3.724933635460289,-4.399983813682951)">
						<g id="svga-group-eyesback-left">
							
								<radialGradient id="SvgjsPath3576_1_" cx="-383.7568" cy="709.3156" r="15.117" gradientTransform="matrix(-2.6628 0.279 -0.279 -2.6628 -571.8588 2250.8777)" gradientUnits="userSpaceOnUse">
								<stop  offset="0" style="stop-color:#FFFFFF"/>
								<stop  offset="0.316" style="stop-color:#FCFDFD"/>
								<stop  offset="0.505" style="stop-color:#F4F7F8"/>
								<stop  offset="0.661" style="stop-color:#E5ECEF"/>
								<stop  offset="0.76" style="stop-color:#D8E2E7"/>
							</radialGradient>
							<path id="SvgjsPath3576" class="st27" d="M217.6,249.2c-1.5-6.9,15.6-11.9,38.1-9.2c22.6,2.8,38.2,16.6,36.2,23.5
								c-1.1,3.9-31.9,9.7-42.8,8.5C238.2,270.9,221.3,265.8,217.6,249.2z"/>
						</g>
						<g id="svga-group-eyesiriswrapper-left" transform="matrix(1,0,0,1,-0.75,-0.5)">
							<g id="svga-group-eyesiriscontrol-left" transform="matrix(1,0,0,1,0,0)">
								<g id="svga-group-eyesiris-left" transform="matrix(1,0,0,1,0,0)">
									<path id="SvgjsPath3562" class="st28" d="M280.8,255.7c0,14.1-11.4,25.5-25.5,25.5c-14.1,0-25.5-11.4-25.5-25.5
										c0-14.1,11.4-25.5,25.5-25.5C269.4,230.2,280.8,241.6,280.8,255.7z"/>
									<path id="SvgjsPath3563" class="st29" d="M240.4,267.6c3.7-0.3,0.4-1.3,0.4-1.3c-1.8-1-5.3-2.5-5.3-3.9
										c0-4.4,6-5.5-0.1-7.2c-6.4-5.9,5-5.7,4.9-5.9c-4.1-10.1,1.3-4.6,3.5-7.5c8.4-11,2.4,1.1,6.9,0c1.7-0.4-3.3-6.5,0.1-5.7
										c2.3,0.6,2.8,2.5,2.8,2.5c1.7-0.3,4.3-2.9,4.3-2.9c3.2,1,5.4,5.5,4.4,4.6c1.6-0.2,3.8-0.9,5.5-1.4c0,0,0.3-1,0.6-0.1
										c3.9,11.3,14,10.5,2.4,13.8c0,0-0.7,0,1.6,1.9c11.5,9.2-8.9,6.4,1.9,10.6c0.4-0.4-6.5,4.1-6.5,5.4c0,2.1-4.4,7.7-8.3,5.5
										c-2.1-1.2-2.5,2.5-3.7,0.8c-2.5-3.4-7.4-0.1-5.6-3.3c2.7-2.2-2.8,0.9-3.8,0.9c-3.5,0,4.6-11.8,16.5-3
										c3.5,2.6-3.7-6.1,2.7-6.1c0.6,0.2,0.4-2.2,0.4-2.9c-3.3-0.6,5.9,0,5.9-5.4c0.6,0.1,2.2-1.5-6.9,0c0,0-0.3-3.2-0.1-3.8
										c0.5-1.9,5.2-1.3,3.8-3.2c0,0-3.4-6.8-3.4-6.8c-10.9-1.8-4.7-2.9-11.5-1.4c-0.3,1.6-14.6,8.4-14.2,11.6c0.4,3,9,4,0.9,9.3
										C252.7,285.6,231.6,261.8,240.4,267.6z"/>
									<path id="SvgjsPath3564" class="st30" d="M255.3,233.4L256,252l7.8-17l-6.5,17.5l13.7-12.7l-12.7,13.7l17.5-6.5l-17,7.8
										l18.7,0.7l-18.7,0.7l17,7.8l-17.5-6.5l12.7,13.7l-13.7-12.7l6.5,17.5l-7.8-17l-0.7,18.7l-0.7-18.7l-7.8,17l6.5-17.5
										l-13.7,12.7l12.7-13.7l-17.5,6.5l17-7.8l-18.7-0.7l18.7-0.7l-17-7.8l17.5,6.5l-12.7-13.7l13.7,12.7l-6.5-17.5l7.8,17
										L255.3,233.4z"/>
									<path id="SvgjsPath3565" class="st31" d="M258.7,238.9l-2.3,14.1l8.4-11.5l-7.5,12.1l12.2-7.4l-11.6,8.3l14.1-2.2
										l-13.9,3.3L272,259l-14.1-2.3l11.5,8.4l-12.2-7.5l7.4,12.2l-8.3-11.6l2.2,14.1l-3.3-13.9l-3.4,13.9l2.3-14.1l-8.4,11.5
										l7.5-12.1l-12.2,7.4l11.6-8.3l-14.1,2.2l13.9-3.3l-13.9-3.4l14.1,2.3l-11.5-8.4l12.2,7.5l-7.4-12.2l8.3,11.6l-2.2-14.1
										l3.3,13.9L258.7,238.9z"/>
									<path id="SvgjsPath3566" class="st32" d="M264.8,255.7c0,5.3-4.3,9.6-9.6,9.6c-5.3,0-9.6-4.3-9.6-9.6s4.3-9.6,9.6-9.6
										C260.6,246.1,264.8,250.4,264.8,255.7z"/>
									<path id="SvgjsPath3567" class="st33" d="M245.2,274c-1.4,1.4-4.2,0.9-6.2-1.1c-2-2-2.5-4.8-1.1-6.2
										c1.4-1.4,4.2-0.9,6.2,1.1C246.1,269.8,246.6,272.6,245.2,274z"/>
									<path id="SvgjsPath3568" class="st34" d="M275.7,250.6c-2.1,2.1-7.2,0.4-11.4-3.8c-4.2-4.2-5.9-9.3-3.8-11.4
										s7.2-0.4,11.4,3.8C276.1,243.4,277.8,248.5,275.7,250.6z"/>
								</g>
							</g>
						</g>
						<g id="svga-group-eyesfront-left">
							<path id="SvgjsPath3598" class="st4" d="M198.3,259.7c0,41.4,24.2,75,54,75s54-33.6,54-75c0-41.4-24.2-75-54-75
								S198.3,218.2,198.3,259.7z M217.6,249.2c-1.5-6.9,15.6-11.9,38.1-9.2c22.6,2.8,38.2,16.6,36.2,23.5
								c-1.1,3.9-31.9,9.7-42.8,8.5C238.2,270.9,221.3,265.8,217.6,249.2z"/>
							
								<radialGradient id="SvgjsPath3599_1_" cx="-111.311" cy="889.9854" r="16.003" fx="-100.058" fy="890.0164" gradientTransform="matrix(2.677 5.569197e-02 -4.444648e-02 2.1415 603.939 -1650.5164)" gradientUnits="userSpaceOnUse">
								<stop  offset="0" style="stop-color:#E4B3AB"/>
								<stop  offset="0.7" style="stop-color:#E4B3AB;stop-opacity:0.3"/>
								<stop  offset="1" style="stop-color:#F3D4CF;stop-opacity:0"/>
							</radialGradient>
							<path id="SvgjsPath3599" class="st35" d="M249.2,272.2c10.8,1.2,41.6-4.7,42.8-8.5c2.1-7-13.6-20.8-36.2-23.5
								c-19.4-2.4-34.7,1-37.7,6.4c2.7-19.2,23.1-34.2,48-34.3c26.7-0.1,48.4,17,48.5,38.3c0.1,21.3-21.6,38.6-48.3,38.7
								c-26.7,0.1-48.4-17-48.5-38.3c0-0.3,0-0.6,0.1-0.9C221.8,265.9,238.3,271,249.2,272.2z"/>
							
								<radialGradient id="SvgjsPath3604_1_" cx="-176.5092" cy="702.1588" r="29.525" gradientTransform="matrix(2.7675 0 0 -2.7675 729.5558 2277.4746)" gradientUnits="userSpaceOnUse">
								<stop  offset="0.95" style="stop-color:#000000;stop-opacity:0"/>
								<stop  offset="1" style="stop-color:#000000;stop-opacity:0.3"/>
							</radialGradient>
							<path id="SvgjsPath3604" class="st36" d="M217.6,249.2c-1.5-6.9,15.6-11.9,38.1-9.2c22.6,2.8,38.2,16.6,36.2,23.5
								c-1.1,3.9-31.9,9.7-42.8,8.5C238.2,270.9,221.3,265.8,217.6,249.2z"/>
							<path id="SvgjsPath3608" class="st20" d="M218.8,233.9c12.6-5.9,28.1-6.5,41.5-3c7.2,1.7,14.9,3.9,21.2,7.9
								c5.8,3.4,10.6,7.5,15,12.6c-4-5.1-8.3-9.4-13.9-12.8c-6.8-4.2-14.3-6.9-22.1-8.7C246.8,226.4,231.4,227.2,218.8,233.9z"/>
							<path id="SvgjsPath3609" d="M203.7,238.6c0,0,7,2.6,10.8,1.9c-1.2-1.4-3.3-4.8-3.3-4.8s5.6,1.7,9.5,0.1
								c2.6-1.1,12.2-3,16.4-3.2c5.1-0.2,15.2,0.4,20.2,1.3c10.1,1.8,27,7.9,35,21.6c0.8,1.7,4.2,2.8,4.2,2.8s-3.1-0.6-3.4,0.1
								c-0.8,1.7,3.9,6,4.5,6.6c-0.5-0.4-3.9-3.4-5.2-2.9c-0.2,0.1-0.4,1.2-0.5,1.4c0.9-7.3-14.5-20.2-36.2-22.8
								c-22.6-2.7-39.7,2.2-38.1,8.9c3.7,16,20.5,21,31.5,22.2c7.6,0.8,24.9-1.7,35-4.6l3-1c-6,3-22.6,6.6-29.3,7.2
								c-2.2,0.2-6.7,0.3-9,0.3c-17.8-0.5-30.5-9.5-35.2-21.8c-0.4-1-1.5-1.9-2.5-2.1c-4.8-1.1-15.3-5.4-15.3-5.4
								c7,1.1,10.4,2,15.9,0.2C206.5,242.4,203.7,238.6,203.7,238.6z"/>
						</g>
					</g>
				</g>
				<g id="svga-group-eyes-right-move" transform="matrix(1,0,0,1,0,1)">
					<g id="svga-group-eyes-right" transform="matrix(1.0500001,0,0,1.0500001,-6.2750865552749815,-4.399983813682951)">
						<g id="svga-group-eyesback-right">
							
								<radialGradient id="SvgjsPath3583_1_" cx="-95.2467" cy="739.2902" r="15.117" gradientTransform="matrix(2.6628 0.279 0.279 -2.6628 453.9439 2250.2002)" gradientUnits="userSpaceOnUse">
								<stop  offset="0" style="stop-color:#FFFFFF"/>
								<stop  offset="0.316" style="stop-color:#FCFDFD"/>
								<stop  offset="0.505" style="stop-color:#F4F7F8"/>
								<stop  offset="0.661" style="stop-color:#E5ECEF"/>
								<stop  offset="0.76" style="stop-color:#D8E2E7"/>
							</radialGradient>
							<path id="SvgjsPath3583" class="st37" d="M441.1,249.2c1.5-6.9-15.6-11.9-38.1-9.2c-22.6,2.8-38.2,16.6-36.2,23.5
								c1.1,3.9,31.9,9.7,42.8,8.5C420.5,270.9,437.4,265.8,441.1,249.2z"/>
						</g>
						<g id="svga-group-eyesiriswrapper-right" transform="matrix(1,0,0,1,0.75,-0.5)">
							<g id="svga-group-eyesiriscontrol-right" transform="matrix(1,0,0,1,0,0)">
								<g id="svga-group-eyesiris-right" transform="matrix(1,0,0,1,0,0)">
									<path id="SvgjsPath3569" class="st28" d="M428.9,255.7c0,14.1-11.4,25.5-25.5,25.5c-14.1,0-25.5-11.4-25.5-25.5
										c0-14.1,11.4-25.5,25.5-25.5C417.5,230.2,428.9,241.6,428.9,255.7z"/>
									<path id="SvgjsPath3570" class="st29" d="M388.6,267.6c3.7-0.3,0.4-1.3,0.4-1.3c-1.8-1-5.3-2.5-5.3-3.9
										c0-4.4,6-5.5-0.1-7.2c-6.4-5.9,5-5.7,4.9-5.9c-4.1-10.1,1.3-4.6,3.5-7.5c8.4-11,2.4,1.1,6.9,0c1.7-0.4-3.3-6.5,0.1-5.7
										c2.3,0.6,2.8,2.5,2.8,2.5c1.7-0.3,4.3-2.9,4.3-2.9c3.2,1,5.4,5.5,4.4,4.6c1.6-0.2,3.8-0.9,5.5-1.4c0,0,0.3-1,0.6-0.1
										c3.9,11.3,14,10.5,2.4,13.8c0,0-0.7,0,1.6,1.9c11.5,9.2-8.9,6.4,1.9,10.6c0.4-0.4-6.5,4.1-6.5,5.4c0,2.1-4.4,7.7-8.3,5.5
										c-2.1-1.2-2.5,2.5-3.7,0.8c-2.5-3.4-7.4-0.1-5.6-3.3c2.7-2.2-2.8,0.9-3.8,0.9c-3.5,0,4.6-11.8,16.5-3
										c3.5,2.6-3.7-6.1,2.7-6.1c0.6,0.2,0.4-2.2,0.4-2.9c-3.3-0.6,5.9,0,5.9-5.4c0.6,0.1,2.2-1.5-6.9,0c0,0-0.3-3.2-0.1-3.8
										c0.5-1.9,5.2-1.3,3.8-3.2c0,0-3.4-6.8-3.4-6.8c-10.9-1.8-4.7-2.9-11.5-1.4c-0.3,1.6-14.6,8.4-14.2,11.6c0.4,3,9,4,0.9,9.3
										C400.9,285.6,379.8,261.8,388.6,267.6z"/>
									<path id="SvgjsPath3571" class="st30" d="M403.4,233.4l0.7,18.7l7.8-17l-6.5,17.5l13.7-12.7l-12.7,13.7l17.5-6.5l-17,7.8
										l18.7,0.7l-18.7,0.7l17,7.8l-17.5-6.5l12.7,13.7l-13.7-12.7l6.5,17.5l-7.8-17l-0.7,18.7l-0.7-18.7l-7.8,17l6.5-17.5
										l-13.7,12.7l12.7-13.7l-17.5,6.5l17-7.8l-18.7-0.7l18.7-0.7l-17-7.8l17.5,6.5l-12.7-13.7l13.7,12.7l-6.5-17.5l7.8,17
										L403.4,233.4z"/>
									<path id="SvgjsPath3572" class="st31" d="M406.8,238.9l-2.3,14.1l8.4-11.5l-7.5,12.1l12.2-7.4l-11.6,8.3l14.1-2.2
										l-13.9,3.3l13.9,3.4l-14.1-2.3l11.5,8.4l-12.2-7.5l7.4,12.2l-8.3-11.6l2.2,14.1l-3.3-13.9l-3.4,13.9l2.3-14.1l-8.4,11.5
										l7.5-12.1l-12.2,7.4l11.6-8.3l-14.1,2.2l13.9-3.3l-13.9-3.4l14.1,2.3l-11.5-8.4l12.2,7.5l-7.4-12.2l8.3,11.6l-2.2-14.1
										l3.3,13.9L406.8,238.9z"/>
									<path id="SvgjsPath3573" class="st32" d="M413,255.7c0,5.3-4.3,9.6-9.6,9.6c-5.3,0-9.6-4.3-9.6-9.6c0-5.3,4.3-9.6,9.6-9.6
										C408.7,246.1,413,250.4,413,255.7z"/>
									<path id="SvgjsPath3574" class="st33" d="M393.4,274c-1.4,1.4-4.2,0.9-6.2-1.1c-2-2-2.5-4.8-1.1-6.2
										c1.4-1.4,4.2-0.9,6.2,1.1C394.3,269.8,394.8,272.6,393.4,274z"/>
									<path id="SvgjsPath3575" class="st34" d="M423.8,250.6c-2.1,2.1-7.2,0.4-11.4-3.8c-4.2-4.2-5.9-9.3-3.8-11.4
										c2.1-2.1,7.2-0.4,11.4,3.8C424.3,243.4,425.9,248.5,423.8,250.6z"/>
								</g>
							</g>
						</g>
						<g id="svga-group-eyesfront-right">
							<path id="SvgjsPath3618" class="st4" d="M406.4,184.7c-29.8,0-54,33.6-54,75c0,41.4,24.2,75,54,75c29.8,0,54-33.6,54-75
								C460.4,218.2,436.2,184.7,406.4,184.7z M409.5,272.2c-10.8,1.2-41.6-4.7-42.8-8.5c-2.1-7,13.6-20.8,36.2-23.5
								c22.6-2.8,39.7,2.3,38.1,9.2C437.4,265.8,420.5,270.9,409.5,272.2z"/>
							
								<radialGradient id="SvgjsPath3619_1_" cx="-396.4481" cy="897.464" r="16.003" fx="-385.1951" fy="897.495" gradientTransform="matrix(-2.677 5.569197e-02 4.444648e-02 2.1415 -708.8876 -1650.6516)" gradientUnits="userSpaceOnUse">
								<stop  offset="0" style="stop-color:#E4B3AB"/>
								<stop  offset="0.7" style="stop-color:#E4B3AB;stop-opacity:0.3"/>
								<stop  offset="1" style="stop-color:#F3D4CF;stop-opacity:0"/>
							</radialGradient>
							<path id="SvgjsPath3619" class="st38" d="M409.5,272.2c-10.8,1.2-41.6-4.7-42.8-8.5c-2.1-7,13.6-20.8,36.2-23.5
								c19.4-2.4,34.7,1,37.7,6.4c-2.7-19.2-23.1-34.2-48-34.3c-26.7-0.1-48.4,17-48.5,38.3c-0.1,21.3,21.6,38.6,48.3,38.7
								c26.7,0.1,48.4-17,48.5-38.3c0-0.3,0-0.6-0.1-0.9C436.9,265.9,420.4,271,409.5,272.2z"/>
							
								<radialGradient id="SvgjsPath3624_1_" cx="-452.3627" cy="702.1588" r="29.525" gradientTransform="matrix(-2.7675 0 0 -2.7675 -834.2849 2277.4746)" gradientUnits="userSpaceOnUse">
								<stop  offset="0.95" style="stop-color:#000000;stop-opacity:0"/>
								<stop  offset="1" style="stop-color:#000000;stop-opacity:0.3"/>
							</radialGradient>
							<path id="SvgjsPath3624" class="st39" d="M441.1,249.2c1.5-6.9-15.6-11.9-38.1-9.2c-22.6,2.8-38.2,16.6-36.2,23.5
								c1.1,3.9,31.9,9.7,42.8,8.5C420.5,270.9,437.4,265.8,441.1,249.2z"/>
							<path id="SvgjsPath3628" class="st20" d="M439.9,233.9c-12.6-5.9-28.1-6.5-41.5-3c-7.2,1.7-14.9,3.9-21.2,7.9
								c-5.8,3.4-10.6,7.5-15,12.6c4-5.1,8.3-9.4,13.9-12.8c6.8-4.2,14.3-6.9,22.1-8.7C411.9,226.4,427.3,227.2,439.9,233.9z"/>
							<path id="SvgjsPath3629" d="M455,238.6c0,0-7,2.6-10.8,1.9c1.2-1.4,3.3-4.8,3.3-4.8s-5.6,1.7-9.5,0.1
								c-2.6-1.1-12.2-3-16.4-3.2c-5.1-0.2-15.2,0.4-20.2,1.3c-10.1,1.8-27,7.9-35,21.6c-0.8,1.7-4.2,2.8-4.2,2.8s3.1-0.6,3.4,0.1
								c0.8,1.7-3.9,6-4.5,6.6c0.5-0.4,3.9-3.4,5.2-2.9c0.2,0.1,0.4,1.2,0.5,1.4c-0.9-7.3,14.5-20.2,36.2-22.8
								c22.6-2.7,39.7,2.2,38.1,8.9c-3.7,16-20.5,21-31.5,22.2c-7.6,0.8-24.9-1.7-35-4.6l-3-1c6,3,22.6,6.6,29.3,7.2
								c2.2,0.2,6.7,0.3,9,0.3c17.8-0.5,30.5-9.5,35.2-21.8c0.4-1,1.5-1.9,2.5-2.1c4.8-1.1,15.3-5.4,15.3-5.4
								c-7,1.1-10.4,2-15.9,0.2C452.1,242.4,455,238.6,455,238.6z"/>
						</g>
					</g>
				</g>
				<g id="svga-group-facehighlight-single">
					
						<radialGradient id="SvgjsPath2772_1_" cx="-140.2756" cy="720.8726" r="40.0343" gradientTransform="matrix(2.55 0 0 -2.55 698.5121 2179.6802)" gradientUnits="userSpaceOnUse">
						<stop  offset="0" style="stop-color:#FFF4F3;stop-opacity:0.5"/>
						<stop  offset="0.9" style="stop-color:#F3D4CF;stop-opacity:0"/>
					</radialGradient>
					<path id="SvgjsPath2772" class="st40" d="M461.4,341.3c0.1,66.8-54,121.1-120.8,121.2c-66.8,0.1-121.1-54-121.2-120.8
						c-0.1-66.8,54-121.1,120.8-121.2C407.1,220.4,461.3,274.4,461.4,341.3z"/>
					
						<radialGradient id="SvgjsPath2776_1_" cx="-140.2756" cy="786.8362" r="36" gradientTransform="matrix(2.55 0 0 -2.55 698.5121 2179.6802)" gradientUnits="userSpaceOnUse">
						<stop  offset="0" style="stop-color:#FFF4F3;stop-opacity:0.5"/>
						<stop  offset="0.9" style="stop-color:#F3D4CF;stop-opacity:0"/>
					</radialGradient>
					<path id="SvgjsPath2776" class="st41" d="M445.8,170.2c0,58-47,105-105,105s-105-47-105-105s47-105,105-105
						S445.8,112.3,445.8,170.2z"/>
				</g>
				<g id="svga-group-eyebrows-left-move" transform="matrix(1,0,0,1,0,-1)">
					<g id="svga-group-eyebrows-left-rotate" transform="matrix(1,0,0,1,0,0)">
						<g id="svga-group-eyebrows-left" transform="matrix(1,0,0,1,0,0)">
							<path id="SvgjsPath3630" class="st42" d="M203.9,225.2c29.2-45.3,109.5,15.4,114.1-3.6c0.9-3.8-1.2-6-4.7-7.5
								C272.4,197.7,218.3,183.8,203.9,225.2z"/>
						</g>
					</g>
				</g>
				<g id="svga-group-eyebrows-right-move" transform="matrix(1,0,0,1,0,-1)">
					<g id="svga-group-eyebrows-right-rotate" transform="matrix(1,0,0,1,0,0)">
						<g id="svga-group-eyebrows-right" transform="matrix(1,0,0,1,0,0)">
							<path id="SvgjsPath3631" class="st42" d="M477.8,225.2c-29.2-45.3-109.5,15.4-114.1-3.6c-0.9-3.8,1.2-6,4.7-7.5
								C409.3,197.7,463.3,183.8,477.8,225.2z"/>
						</g>
					</g>
				</g>
				<g id="svga-group-nose-single-move" transform="matrix(1,0,0,1,0,0)">
					<g id="svga-group-nose-single" transform="matrix(1,0,0,1,0,0)">
						<path id="SvgjsPath2951" class="st6" d="M317.7,351c-2.2,6.2,15.1,12.9,21.7,13.3c7.1,0.4,27.1-8.7,23.7-15
							c-3.6-6.6-16.9-0.9-22.6-0.9C334.6,348.4,320.6,342.7,317.7,351z"/>
						<path id="SvgjsPath2952" class="st20" d="M347.4,353.9c-0.7-1.6,3.6-4,5.2-4.5c2.3-0.7,7.5,0.7,7.3,2.5
							c-0.2,1.6-4.8-0.5-6.3-0.1C352.1,352.3,348.1,355.4,347.4,353.9z M326.5,352.5c2.1,0,5.3,1.4,5.8,0.2c0.7-1.4-4.7-3.2-6.3-3
							c-1.3,0.2-6,2.9-5.3,4C321.3,354.7,323.7,352.5,326.5,352.5z"/>
						<path id="SvgjsPath2953" class="st43" d="M340.4,342.7c2,0,5.4-1.9,5.9-5.7c2.3-16.7-1.6-60.7-5.9-60.7
							c-4.1,0-7.5,45.1-6.5,60.7C334.2,340.8,338.1,342.7,340.4,342.7"/>
					</g>
				</g>
				<g id="svga-group-hair-front" transform="matrix(1,0,0,1,0,0)">
					<path id="SvgjsPath2983" class="st44" d="M221.9,583.3c3.5-43.5,1.4-63.8-2.3-100.8c-7.8-77.1-9.9-126.4-12.1-206.9
						c-0.9-33.6-1.9-68.3,9.9-100.8c10.7-30.3,33.9-56.1,62.2-68.9c22.9-10.3,43.9-10.2,67.3-10.2c28.1,0,47.7,2.2,64.8,13.4
						c48.6,31.7,52.9,76.9,58.9,139.4c6.5,68.1,3.3,75.5,3.4,140.2c0.1,148.4-9,171.4,8.9,297.7c19.9,1,80-503.4,13.9-585.1
						c-37.8-46.7-263.9-21.9-294-1.2c-50.6,34.7,5.6,583.2,5.6,583.2C208.5,678.4,221.1,592.7,221.9,583.3z"/>
					<path id="SvgjsPath2984" class="st42" d="M216.2,609.3c3.6-45.5,1.5-66.8-2.4-105.4c-8.1-80.6-10.4-132.2-12.7-216.3
						c-1-35.1-2-71.4,10.4-105.4c11.2-31.7,35.5-58.6,65-72c23.9-10.8,46-10.6,70.4-10.6c29.3,0,49.8,2.3,67.8,14
						c50.8,33.2,55.3,80.4,61.6,145.7c6.8,71.2,3.5,78.9,3.5,146.6c0.1,155.2-10.7,178,8.1,310c20.9,1.1,82.9,3.7,103.2,2.2
						c16.9-172.8-23.8-233.2-31-383.2c-3.4-74-6.8-203.1-76-288.5C444.8-2.5,398-16.5,346.2-4.2c-39.7-7.1-78.1,2.4-109.6,24.1
						c-52.9,36.3-97.1,111.5-102.7,175c-7.2,81.5,7,118.3-7.5,199.9C109.1,492,81.8,566,95.7,708.3c15.8,1.2,108,5.5,108,5.5
						C203.8,708.7,215.4,619.2,216.2,609.3z"/>
					<path id="SvgjsPath2985" class="st45" d="M510.4,716.9c-9.2-0.4-17-0.7-22.3-1c-18.8-132-8-154.8-8.1-310
						c0-67.6,3.3-75.4-3.5-146.6c-6.3-65.3-10.8-112.5-61.6-145.7c-30.5-19.9-106.7-17.6-138.2-3.4c-29.6,13.4-53.9,40.3-65,72
						c-12.4,34-11.4,70.3-10.4,105.4c2.3,84.2,4.5,135.7,12.7,216.3c3.9,38.7,6.1,60,2.4,105.4c-0.8,9.9-12.5,99.4-12.6,104.6
						c0,0-10.2-0.5-24.4-1.2c1.1-34.2,17.5-68.4,20.3-102.6c5.8-144-35-282-2.9-429c8.7-36,23.3-66,55.4-84
						c27.6-15.8,78.8-19.7,96.2-8.5c0.3-1.8,0.6-3.7,0.9-5.6c4.5-26.7-3.7-37.1,4.2-54.7c-6,16.6,0.7,27.2-0.4,45.7
						c-0.2,3.2-1.2,8.1-2.6,14c18.9-8,60.5-5.7,79.7,9.1c99.5,76.5,52.5,336,67.1,507C499.1,642.8,505.6,680,510.4,716.9z
						 M200.6,122c22.3-30.1,56.8-58,93-63.8c8.9-1.4,17.1-1.8,16.6-1.8c-36.7,1.2-68.4,13.6-96.1,44.3
						c-32.8,35.1-31.3,65.5-31.4,72.7C184,154.7,186.3,144.6,200.6,122z M370.1,68c4-1.1,12.8-4,24.6-3.3
						c46.7,2.2,103.5,54.9,110.1,127.7c1.7,17.9,3.6,73,1.2,31.9c-1.5-25-4.1-37.3-6.6-48.3c-12.5-55.4-69.5-121-124.3-109.1
						C371.8,67.5,370.1,68,370.1,68z M167.4,261.3c2.4,81.4,8.3,137.6,6.7,176.3c-4.4,48.5-9.4,88.4-9.4,88.4
						c-0.1,1.2,0.2-5,0.9-15.3C173.1,404.7,166,390.1,167.4,261.3z M511.3,266.6c1.3,22.5,6.7,118.2,7.5,138.5
						c0.7,15.9,0.8,122,1.1,127C520,533.9,513.6,447.3,511.3,266.6z M534.3,294.2c2.8,43.7,20.8,218.7,43.3,301.2
						c0.4,1.4-1.9-5.5-5.6-16.8C543.8,485.9,537.6,389.4,534.3,294.2z M157.8,354.4c-4.9,18.4-0.7,29.4-0.6,47.7
						c-0.9,42.8-15.7,92.1-21.1,116.9c-6.3,26.2-8.5,98.9-8.5,102c-0.1,3-2.6-78.1,9.4-126.7c31.1-121,11.8-88.9,19.1-134.6
						C157.2,356.3,157.8,354.4,157.8,354.4z M360.3,20.3c14.3-3,9.7-2.3,21-3.5c48.3-5,80.9,32.9,88.1,38.6c0.4,0.4-1.7-1.5-5.2-4.7
						C420.9,15.1,393.3,14.6,360.3,20.3z M212.4,92.2c20.1-20.6,43.7-48.8,91.8-50.8c18.5-0.9,27.3,4.3,30.2,5
						c0,0-25.9-13.7-76.3,9.5C241.8,63.1,223.6,81.6,212.4,92.2z"/>
					<path id="SvgjsPath2986" class="st46" d="M594.7,609.2c-35.4-124.7-45.2-255.4-56.7-386.1C528.5,138,493,39.3,414.6,4.9
						c-8.5-3.7-82.3-8.5-118.8,2.3c-125.4,30-160.5,176.7-151.7,300c6.6,93.1-28,202.8-52,305.2c2.7-85.1,21.2-144.8,34.2-217.6
						c14.5-81.6,0.3-118.4,7.5-199.9c5.7-63.5,49.8-138.7,102.7-175c31.5-21.6,69.9-31.1,109.6-24.1c38.2-9.1,73.5-3.8,105.3,19.1
						c0.1,0,0.1,0,0.2,0C463,23,474,33.7,484.3,46.4c69.2,85.4,72.6,214.5,76,288.5C565.7,448.4,590.4,510.6,594.7,609.2z
						 M207.1,84.2c-18,22.6-7.2,8.3,11.1-10.5c53.5-49.4,87.5-52.3,117.6-45.4C285.2,14.3,240.6,43.6,207.1,84.2z M376.7,36.5
						c34.3-11.8,75.9-4.5,119.6,64.4c32.5,54.5,32.8,122.5,34.7,131.8c0.2,1.3-0.9-5.4-2.4-16.4C524.7,191,518,127,461,62.2
						C445.9,44.8,413.2,25.8,376.7,36.5z M513.9,200.9c9.1,89.2,14.7,218.5,14.7,218.5c0.2,2-2.1-20.6-4.4-45.3
						C515.9,283.5,519.8,294.3,513.9,200.9z M504.5,411.5c1,64.8,0.2,51.5,7,144.3c5.9,50.1,7.8,59-1.4,3.2
						C501.7,505.3,503.1,468,504.5,411.5z M533.7,434.6c11.9,89.8,10.7,89.1,13.6,137.1c3.5,48.6,4.8,56.2-1.5,3
						C542.1,544.9,540.1,504.1,533.7,434.6z M187.4,118.1c-18.3,36.5-23.4,66.4-27,107.3c-6,59-0.5,63.5-4.1,102.4
						c0,0.5,0-0.5,0.1-2.7C157.8,276.1,144.5,195.7,187.4,118.1z M221.1,113.5c-18.4,17.9-28.2,51.3-34.4,77.3
						c-13.3,57.4-6.5,251.8-10.6,110c-1.9-53.2-3.6-97.2,23.5-156.4C205.4,131.6,211.7,121.5,221.1,113.5z M180.5,414.1
						c0.5,34.2,4,38,7.3,77.6c3.8,38.4-6.9,99.6-7.3,106.2c-0.6,4.6,7.9-69.1,3.6-121.7C179.6,427,179.9,436.3,180.5,414.1z
						 M160.6,460.3c-8.6,35.4-5.7,39.5-15.6,181.2C144.8,644.5,144.2,517.9,160.6,460.3z M241.1,92.2c2.9-1.7,44.6-33.2,86.5-18.3
						c3.8,1.2,6.4,2.5,6.8,2.6c2.9,1.2-15.7-7.2-35.7-4.5C268.1,74.6,246,89.6,241.1,92.2z M360.5,59.7c6.3-2.9,12.3-6.4,27-8.2
						c41.5-5.1,67.4,29.7,70.4,32.1c2.8,3.1-13-16.9-38.5-25.9c-4.4-1.5-0.1-0.2-7.7-2.4c-1.2-0.4-6.2-1.6-11.3-2.2
						C382.9,51.5,374.7,53.8,360.5,59.7z"/>
					<path id="SvgjsPath2987" d="M560.6,334.9c-3.5-74.5-6.4-202.6-76.1-288.7C442.2-6.2,393.8-15.9,346.3-4.5
						c-36.2-6.4-75.1,0.2-109.8,24.1c-52,35.7-97.1,110.5-102.9,175.3c-7.2,81.5,7,118.3-7.5,199.8C107.9,497.1,82.6,560,95.2,706.8
						c0.1,0.6,0.1,1.2,0.2,1.8c0.3,0,0.6,0,0.8,0.1c31.5,1.8,67.8,3.7,106.7,5.5c0.2,0,0.5,0,0.7,0c90.7,4.1,195.2,7.5,285.1,7.1
						c0.2,0,0.4,0,0.6,0c37.1-0.2,71.7-1.1,101.8-2.9c0.1,0,0.3,0,0.4,0c0.1-0.9,0.2-1.8,0.3-2.7
						C608.6,547.5,567.7,483.9,560.6,334.9z M204.1,711.1c4.6-36.8,12-96.1,12.5-101.7c7.3-91.6-9-87.2-14.9-313.4
						c-1-38.3-3.2-77.1,10.1-113.6c11.1-31.5,35-58.3,64.9-71.8c13-5.9,26.9-8.8,41-10.2c47.2-1,73.9-1.5,97,13.5
						c49.7,32.5,54.9,77.3,61.5,145.5c6.9,71.3,3.5,78.7,3.6,146.6c0.1,85.6-0.6,6.9-2.8,169.5c-0.3,19.3,0.1,38.5,1.6,57.7
						c2,26.5,6.5,61,9.8,84.2C399.4,717.1,294.9,714.3,204.1,711.1z M324.1,99.8c5.4-0.4,10.8-0.6,16.2-0.6
						C335.3,99.4,329.9,99.6,324.1,99.8z M591.3,715.7c-29.8,1.1-64.7,1.5-102.5,1.5c-2.1-17.9-4.5-38.9-4.5-39.7
						c-2.6-25.7-4.3-51.4-4.2-77.3c0-3,12.3-241.3,4-319c-8.3-78.5-14.1-148.5-80.4-175.6c-14-5.7-29.1-7.1-51.2-6.8
						c-0.1,0-0.2,0-0.3,0c-16-0.5-31.4-0.5-46.4,1.6c0,0-0.1,0-0.1,0c-16.4,2.4-32.2,7.4-47.5,17.4
						c-71.5,46.4-63.1,135.6-62.4,189.3c2.5,199.6,25.4,205.5,16.9,313.4c-0.1,1-5.8,55.3-9.4,90.4c-39-1.3-75.5-2.8-107.1-4.2
						c-0.3-5.8-0.6-9-0.6-9.2c-8.7-172.5,30.6-229.1,42.3-331.5c8.9-77.9-9.1-139.1,8.1-205.6C170.1,67.8,244.9-17,342.7-3.6
						c3.1,0.4,6.3,1,9.4,1.6c1.1-0.2,2.2-0.4,3.3-0.6c35.6-6.2,70.1-2.7,101.2,24.8c91.1,80,92,234.9,94.9,290.1
						c9.1,175,49.1,220.6,41.2,385.1C592.7,697.6,592.1,706.3,591.3,715.7z"/>
				</g>
				<g id="svga-group-glasses-single-move" transform="matrix(1,0,0,1,0,0)">
					<g id="svga-group-glasses-single" transform="matrix(1,0,0,1,0,0)">
						<path id="SvgjsPath2899" class="st47" d="M340.8,56.6L340.8,56.6L340.8,56.6L340.8,56.6z"/>
					</g>
				</g>
			</g>
		</g>
	</g>
</g>
</svg>
